<svg xmlns="http://www.w3.org/2000/svg" viewBox="0 0 257.89 80.93"><title>strut-logo-black</title><g id="Layer_2" data-name="Layer 2"><g id="Layer_1-2" data-name="Layer 1"><path d="M58.93,37.73a1.24,1.24,0,0,1-.29.06s-.06,0-.06,0,.08-.09.23-.21q.47-.32.47-.38A8.52,8.52,0,0,0,58,37.7a7.66,7.66,0,0,1-1.44.59,11.27,11.27,0,0,1-1.79-.62,13.63,13.63,0,0,1-3.5-2.17,75.85,75.85,0,0,0-8.51-5.27,94,94,0,0,1-9-5.51,13.83,13.83,0,0,1-2.2-1.79h0q.18,0,12.94-3T64.37,14.8q7-2.12,7-2.39t-.59-.26q-.62,0-.62-.06s.13,0,.38,0,.35,0,.35-.12v-.18h-.06q-.29,0-2.75.32-2.84.41-4.26.53l-1.54.12s-.06,0-.06-.09a.66.66,0,0,1,.06-.2,1.36,1.36,0,0,0,.12-.47q0-.15-.47-.26t-.38-.29a.26.26,0,0,1,0-.12,1.33,1.33,0,0,0,.12-.44q0-.12-.73-.15l-.85,0-1.45.16q-1.33.16-3.63.69L46,13.64a60.75,60.75,0,0,1-8,1.58H35.72a20.1,20.1,0,0,0-4.24.89,49.17,49.17,0,0,0-4.81,1.55,34.73,34.73,0,0,1-5.2,1.44q-3.58.78-4.19,1a1.4,1.4,0,0,0-.81.57q-.19.35-.37.35c-.12,0-.18,0-.18.06s0,.09.15.15a.17.17,0,0,1,.06.12s0,0-.06.09a.26.26,0,0,0-.15.23q0,.15.73.78a12.24,12.24,0,0,0,1.35,1,2.48,2.48,0,0,1,.62.45S18.41,24,18,24a1.38,1.38,0,0,0-1.1.5,2.8,2.8,0,0,0-.43.56s0,.1.12.18a.12.12,0,0,1,0,.09s0,.07-.15.09a.16.16,0,0,0-.15.18.48.48,0,0,0,0,.15,11.22,11.22,0,0,0,2.83,1.63,63,63,0,0,1,5.57,3.12q2.86,1.79,5.63,3.81a21.14,21.14,0,0,0,2.18,1.36l-.49.08,1.82.62a37.42,37.42,0,0,0,3.78,1.58l2.62,1-6,5.35L0,72.2,18.61,60.46c-2,1.74-3.23,2.85-3.73,3.3a48.29,48.29,0,0,1-5,3.52Q6,69.82,6,70.11a0,0,0,0,0,0,0q.5,0,7.33-3.75,3.58-2,4.28-2c.14,0,.2,0,.2.12q0,.41-1.82,2.05-3,2.72-3,3.08s0,0,.06,0a3.07,3.07,0,0,0,.91-.41q2.64-1.52,8.35-5.07a117,117,0,0,0,10.78-7.55,92.38,92.38,0,0,1,9.64-6.74A103.89,103.89,0,0,0,51.9,43.8q4.34-3.25,5.19-3.25h.06a9,9,0,0,1,1.07.22,1.94,1.94,0,0,0,.45.1c.08,0,.12,0,.12-.06v-.09a2.37,2.37,0,0,0-.47-.28q-.47-.25-.47-.31h0a4.23,4.23,0,0,1,.7.23,4.15,4.15,0,0,0,.82.29,3.69,3.69,0,0,0-.7-.59q-.85-.56-.85-.67t.84-.67q.83-.56.83-.79v-.29a0,0,0,0,0,0,0A3.09,3.09,0,0,0,58.93,37.73Z"/><path d="M100.46,23.26l-2.08.26H98.2V23.4l2.26-.41V22.7Q97.29,23,97,23h-.35v-.15a6.36,6.36,0,0,0,2.08-.7q5.89-1.61,5.89-2.2v-.12h-1.2v-.41q-7.27.67-10.26.67v-.26a5.72,5.72,0,0,1,1.23-.41v-.29l-2.61.29h-.18v-.15l2.61-.41v-.29l-7.8.56A6.59,6.59,0,0,1,86.57,18v-.15q0-2-2.58-3a6.65,6.65,0,0,1,.32-1.93q-.79-3-2.58-3-1.23,0-1.23.41a6.33,6.33,0,0,1-1.2-.15q-.62.18-2.08,5.1-1.73.26-1.73,4.54a78.9,78.9,0,0,1-8,1.64q-5.36.67-5.36,1.11-1.55.44-1.76,1.23l.18.26q-.85.41-.85.56a1.76,1.76,0,0,1,.53,1q-1.58.18-1.58.41-1.73.15-1.73.82-1.55.56-1.55,1l.18.82q0,.26-.53.26h-.18q0,1.23.88,1.23l1,1.11-.18.26v.29A2.57,2.57,0,0,1,58,32.6h1.38q7.06-1.23,7.8-1.23h4l.85-.15c0,.1.06.15.18.15Q71,35.27,69.75,40a223.63,223.63,0,0,0-7.44,28v1.52h.32a15.3,15.3,0,0,1,.88-2.08h.18v.15a14.54,14.54,0,0,1-.7,1.93v.26a48.93,48.93,0,0,0,3.84-6.45,13.29,13.29,0,0,0,1.73.26c0-.1.06-.15.18-.15v1.93l.18,1h.32l.18-.7h.18v.15a.9.9,0,0,0-.18.56h.35q3.31-7.65,4.86-10.58,3-6.12,8.67-25.85,0-.91,2.43-1.23Q98.23,25,100.46,23.52Z"/><path d="M135.63,57.34q6.27,10.76,7.21,10.76.15,0,.18-.2-2.32-10.17-7.74-16.18L124.14,37.56q12.31-3,14.24-5.45,5.77-1.55,6.77-5.25a2.59,2.59,0,0,0,.06-.56,7.43,7.43,0,0,0-.76-2.81q-10.81-8.06-31-11.87l-3.63-.32.06-.12a1.12,1.12,0,0,0-.26,0l-.35,0-.38-.18a1.65,1.65,0,0,1-.32,0A2.26,2.26,0,0,1,108,11l-1.73-.35q-1.23-.23-2.05-.35l-4.63,1.67q4.31,4.25,7.91,5.33a62.46,62.46,0,0,1-4.48,11.81c.1,0,.15,0,.15.09v.06a22.46,22.46,0,0,0-1.7,4.66q-1.58,8.79-3,13.77Q94,58.63,94,60.47c0,.25.07.38.21.38s.48-.25.91-.76l1.38-2.58q2.2-5.63,3.72-10.58l.2.06-.18.59q-.09.41-4.63,12.84l1,2q.06-.12.09-.12v.09q0,.62-1.35,6.21,3.58-10,3.84-10v.15q.06-.2.12-.2a4.75,4.75,0,0,1,.15,1.7l-1,1.88a8.21,8.21,0,0,0-1.49,4.69q.79,5.6,2.34,5.89l.18.06.32-1.11.59-1.41.18.06-.79,2.9.38.09q2.58-6.42,3.55-8.29a126.89,126.89,0,0,0,9.14-24.24l.2,0q6.1,9.23,11.28,15.59,14,14,15.27,14.65l.59.12v-.09a1.28,1.28,0,0,0-.23-.59l3.72,2.87Zm-18.7-29.92s0,0,.12,0L118.78,22a3.92,3.92,0,0,0,0-.53v-.35l.29,0,2.08.2q2.17.06,2.26.09l0-.15-1.61-.29v-.06l.32,0a49.07,49.07,0,0,1,10.23,2.81l-.06.2q-.12.73-5.48,2-1.55.82-9.79,1.49Z"/><path d="M236.48,7.43a7.27,7.27,0,0,0-1.9.38,32,32,0,0,0-7,.62q-6.1.38-9,.73l-1.17-.79h-.06q-.35,0-.56.73-.18,0-.18-.26l-.21,0q-.53,0-.61.59-11.22,1.47-17.53,2.43-7.64,1-10.89,1.86A3.87,3.87,0,0,0,186,12.18a1,1,0,0,0-.47.18h0c-.1,0-.17-.12-.2-.35l-.64.09q-.38,0-.41.67h0a3.41,3.41,0,0,1-.88-.38h-.15a.33.33,0,0,0-.29.35v.09l-.5.06L181,12.53l-.5.06q-.38.06-.41.7l-.18,0-.7-.29-.32,0-.32.18q-1.32,6.83-1.58,7.38Q172,42.66,172,47.73c0,.29,0,.55,0,.76q-8.27,2.34-11.49,3.52h-.18v-.12q0-.53,6.07-18.37,4.22-18,4.22-19.69v-.23l-.21-.23c.14,0,.21-.32.21-.91l-.32,0-.88,2.31h-.18v-.12l.82-2.67-.18-.23a18.37,18.37,0,0,0,1-5.07c0-.25,0-.49,0-.7l-1.26,2,.73-2-.23-.62a3.22,3.22,0,0,0,.23-.88V4.38a1,1,0,0,1-.23-.35.74.74,0,0,0,.12-.35V3.62l-.32.06a12.17,12.17,0,0,1-.94,1.79h-.18l0-.12.94-1.91,0-.26L160.86,16.1q-2.26,1.55-2.26,2.2v0h-.15q-.06-.35-.76-.56l-.32.06a.3.3,0,0,0-.29.29q-5.8,16.53-7.74,26.4-.53,6.54-2.29,9.82-2.84,5.39-2.84,6.65v.12l.18.23q-.15,0-.18,1.05h.12a.21.21,0,0,1,.23.21v.12l-.26.44a1,1,0,0,0,.85.38h.21v0a10.47,10.47,0,0,1-1.47,3.11q-.12,1.67-.76,1.76l.18.23,0,.26v0q0,.2-.29.26a2,2,0,0,0,.88.53h0v.06a.73.73,0,0,1-.12.32q0,.2.41.2l.29,0,.06.64q.09.59,3.11.65l.82-.12q1.26-.35,8.23-6.68a131.18,131.18,0,0,0,14.95-9.2l.09.73-.06.79a3.92,3.92,0,0,1,.53,1.47v.15l.35-.06v-.15a4.44,4.44,0,0,1,.18-1l.18,0v.15l0,1.14.35,0,1.17-4,.15,0,0,.26q.29,4.81.47,6.24l.26.73.15,0,.32-.15-.09.64.32,0a7.86,7.86,0,0,0,.5-1.47v0h.18l0,.38.35-.06a32.36,32.36,0,0,1,2.46-8.26q3.75-19.52,4.42-22.27,2.28-8.8,3.08-12.76l1.07.19a45.18,45.18,0,0,1,6.45-.76,4.57,4.57,0,0,1,.79.06q1.46.26,3.58.73l2.34.15.12,0a10.47,10.47,0,0,0-1.88,1.35l0,.12.5-.15h.12c0,.12-.11.18-.26.18h-.12l0,.23q5-.59,7.41-1a29.9,29.9,0,0,1,6.15-1.44,1.09,1.09,0,0,1,.26,0l-1.23,7.27a103.06,103.06,0,0,0-1.7,14.21v.26h-.09q-.38,0-.44.26v.15a11.29,11.29,0,0,0,.26,1.79q-1.08.09-1.14.53a86.15,86.15,0,0,1-.47,11.34q0,10.05-.23,16.35l.32.06q.23-5.54.59-7.74a18,18,0,0,1,.73-2.87l.12,0L210,61l.23,0q.06-.44.64-2.49l.12,0a68.08,68.08,0,0,0-.41,9.35q0,2.78.06,6.27-.23,3.13-.23,4.84,0,1.88.29,1.93v-.12q.29-6.65,1.06-12.66l0-.12.12,0a3.27,3.27,0,0,0-.09.65c0,.2,0,.3.15.32q0,1.61,0,2.84,0,4,.29,4.1h.15q.26,0,.47-.73H213a3.27,3.27,0,0,0-.09.64c0,.2,0,.3.15.32l.12,0q2.43-8.79,3.11-12.92l3.31-22.62q.35-1.35.65-3.08,2.87-17.76,2.87-20.46,0-.47-.09-.47a8.43,8.43,0,0,1,2-.29q7.21-1.38,9-3.22l-.12,0h-.7l-.12,0,0-.12.85-.09,0-.23-.09-.23A6.35,6.35,0,0,0,235.46,11l0-.12-.35-.06q0-.23.53-.23h.12l0-.23-.23,0,.29-.32-.32,0a1.89,1.89,0,0,0-.65.12l-.35-.06,0-.12q1.2-.12,1.26-.38l-.7,0a1.32,1.32,0,0,0-.5.06l0-.12L231,9.83l-.12,0,0-.12,3.31-1.35q2.58-.61,2.64-.85l-.12,0A1.26,1.26,0,0,0,236.48,7.43ZM163.55,58.25h-.12V58h.12Zm46-5.83-.06.59q0,.21-.21.21h-.06l-.09-.23.21-1.76q.32-3,.79-3a.14.14,0,0,0,.12.15A32.44,32.44,0,0,0,209.55,52.41Z"/><path d="M247,2.28a3.77,3.77,0,0,0,1.8-.65h-.19v0l.17,0v0l0,0a1.28,1.28,0,0,0,.33-.28v0H249s0,0,.11,0h0v0h0l.06-.06h-.06L249,1h-.07V1q.24,0,.25-.08h-.24v0l-.73.07h0v0l.66-.27a1.5,1.5,0,0,0,.53-.17h-.08a1.46,1.46,0,0,0-.38.08,6.4,6.4,0,0,0-1.4.12q-1.22.08-1.81.15l-.23-.16h0s-.08,0-.11.15,0,0,0-.05h0q-.11,0-.12.12-2.25.29-3.51.49a11.4,11.4,0,0,0-2.61.52v0l.12,0v0h0A.32.32,0,0,0,239,2h0s0,0,.11.06v0l-1.29.16,0,0,1.27-.07h0v0q-1.16.36-1.24.36h0v0l.09,0h0l.73-.09h0v0a2.73,2.73,0,0,0-.58.19v0l.76-.11a.65.65,0,0,0,.48-.16l.23,0a9,9,0,0,1,1.29-.15h.16l.72.15.47,0h0a2.09,2.09,0,0,0-.38.27V3l.1,0h0s0,0-.05,0h0V3q1-.12,1.48-.21a6,6,0,0,1,1.23-.29h.05L244.47,4a20.62,20.62,0,0,0-.34,2.85v.05h0q-.08,0-.09.05V7a2.25,2.25,0,0,0,.05.36q-.22,0-.23.11a17.18,17.18,0,0,1-.09,2.27q0,2,0,3.27h.06q0-1.11.12-1.55a3.61,3.61,0,0,1,.15-.58h0l-.06.35h0q0-.09.13-.5h0a13.65,13.65,0,0,0-.08,1.87q0,.56,0,1.26t0,1q0,.38.06.39v0q.06-1.33.21-2.54v0h0a.66.66,0,0,0,0,.13s0,.06,0,.06q0,.32,0,.57a2.28,2.28,0,0,0,.06.82h0s.07,0,.09-.15h0a.66.66,0,0,0,0,.13s0,.06,0,.06h0q.49-1.76.62-2.59l.66-4.53q.07-.27.13-.62.58-3.56.58-4.1,0-.09,0-.09A1.69,1.69,0,0,1,247,2.28ZM243.92,9.5v.12s0,0,0,0h0l0,0,0-.35q.06-.6.16-.6a0,0,0,0,0,0,0A6.47,6.47,0,0,0,243.92,9.5Z"/><path d="M256.3,13.07l0,0-.09.12.11-.07v0Z"/><path d="M257.89.58q-.06-.08-.12-.08t-.53-.22h-.12q0-.11-.36-.19a.12.12,0,0,0-.12.11.48.48,0,0,1-.21,0s-.08,0-.12.13a5.28,5.28,0,0,1-.65,1.53h0v0l.2-.3h0q-1.58,1.75-2.44,2.82A19.49,19.49,0,0,1,252,6.13V5a9.59,9.59,0,0,1,0-1.1q0-.46,0-1.17V.87q0-.6-.4-.74s0,0,0,0q-.29-.08-.29-.16H251q0,.11-.08.11V.05h-.12q-.19,0-.45.85-.24-.09-.24-.14a.62.62,0,0,0-.53.31Q247.37,7,247.37,8.78a19,19,0,0,0-.4,1.91,10.76,10.76,0,0,1-.21,1.53l.13.13.2.05a6.83,6.83,0,0,0,.68-1.38h.08q0,.08-.55,1.48l1-1.69-.93,1.66a4.15,4.15,0,0,0,.94-1.29q.16-.07.16-.11l.32-.3a2.47,2.47,0,0,1,.33-.93,1.6,1.6,0,0,1,.2-.87,22.62,22.62,0,0,0,1.1-3h0a28.07,28.07,0,0,0,.61,2.87h.08a1,1,0,0,1,0-.22h0V9h.08V8.7s.14-.08.41-.16a6.83,6.83,0,0,0,1.78-2h0v0a28.54,28.54,0,0,0-1.66,5,3.83,3.83,0,0,0-.39,1.06q0,.08,0,.08c.08,0,.27-.18.56-.52a.92.92,0,0,1,0,.19,3.31,3.31,0,0,1-.29,1.17L253.37,11a13.7,13.7,0,0,0-.29,1.49,1.56,1.56,0,0,0,0,.22v.09a.52.52,0,0,0,0,.18s0,0,0,0l.11-.14-.08.16h0l0,0-.07.15.21,0,.19,0,.1-.74,0-.27c.1-.19.19-.36.25-.46s.12-.14.15-.14h0v-.08h0l-.3.83-.15.29,0,0-.24.65.29-.67.1-.05q.32-.06.65-1h.08v-.11h0v.11h.08q.31-1.22.38-1.69a1.65,1.65,0,0,0,0-.22q0-.08,0-.08h0q0-.25.06-.51t.12-.69q0-.23.11-.48a24.57,24.57,0,0,1,1.26-3.62,27.18,27.18,0,0,0,1.3-3.58l0-.14S257.89.59,257.89.58ZM252,6.29h0a2.74,2.74,0,0,0,0-.31V5.85h0a2.59,2.59,0,0,0,0,.3Z"/></g></g></svg>