<svg width="146" height="41" viewBox="0 0 146 41" xmlns="http://www.w3.org/2000/svg"><title>Logo</title><path d="M23.876 32.64c-.064 1.158-.393 2.245-.985 3.26-.592 1.015-1.408 1.9-2.45 2.658-1.04.757-2.297 1.353-3.77 1.788-1.473.434-3.14.652-4.996.652-1.442 0-2.795-.193-4.06-.58-1.265-.387-2.41-.934-3.435-1.643-1.025-.71-1.898-1.57-2.62-2.585C.84 35.175.32 34.024 0 32.735l7.686-3.237c-.064.032.008.258.217.676.208.42.504.862.888 1.33.386.466.858.885 1.418 1.255.56.37 1.16.507 1.802.41.544-.064 1.08-.306 1.61-.725.528-.418.776-1.08.744-1.98-.032-.548-.248-1.056-.65-1.523-.4-.467-.967-.958-1.704-1.474-1.633-1.095-3.147-2.053-4.54-2.875-1.393-.82-2.61-1.683-3.65-2.585-1.042-.902-1.858-1.916-2.45-3.044-.593-1.127-.89-2.545-.89-4.252 0-1.578.32-2.963.96-4.155.642-1.192 1.49-2.19 2.547-2.996 1.057-.804 2.274-1.416 3.65-1.835 1.378-.42 2.804-.644 4.277-.677 1.76 0 3.307.25 4.636.75 1.33.5 2.45 1.135 3.362 1.908.913.773 1.626 1.65 2.138 2.633.513.982.85 1.956 1.01 2.923l-7.063 2.802c-.096-.354-.24-.75-.432-1.184-.192-.434-.457-.836-.793-1.207-.336-.37-.736-.684-1.2-.942-.465-.257-1.002-.385-1.61-.385-.64 0-1.225.2-1.754.604-.528.4-.792 1.005-.792 1.81 0 .613.248 1.152.744 1.62.497.466 1.273 1.086 2.33 1.86 1.474.837 2.89 1.675 4.252 2.512 1.36.838 2.57 1.788 3.627 2.85 1.056 1.064 1.904 2.264 2.545 3.6.64 1.338.96 2.924.96 4.76v.677zM49.724 5.047v8.118h-8.118v27.832h-8.07V13.166h-8.12V5.048h24.308zm15.136 35.95l-4.804-11.693h-.096v11.693h-8.07V5.048h10.905c2.05 0 3.755.314 5.116.943 1.362.63 2.45 1.466 3.268 2.513.816 1.047 1.4 2.27 1.753 3.672.353 1.402.53 2.875.53 4.422 0 1.61-.265 3.044-.793 4.3-.53 1.256-1.153 2.31-1.874 3.165-.72.854-1.45 1.498-2.186 1.933-.736.435-1.313.652-1.73.652l7.255 14.35H64.86zm37.523-14.35c0 2.125-.28 4.074-.84 5.846-.562 1.77-1.378 3.293-2.45 4.566-1.074 1.272-2.41 2.255-4.012 2.947-1.6.693-3.458 1.023-5.572.99h-.048c-2.338.033-4.324-.337-5.957-1.11-1.633-.774-2.962-1.83-3.987-3.165-1.025-1.337-1.77-2.875-2.234-4.615-.464-1.74-.697-3.56-.697-5.46V5h8.31v21.02c0 .87.09 1.69.265 2.463.177.773.457 1.45.84 2.03.385.58.866 1.038 1.442 1.377.577.338 1.265.507 2.066.507.8 0 1.49-.17 2.066-.507.576-.34 1.05-.798 1.417-1.377.37-.58.64-1.257.818-2.03.176-.773.264-1.594.264-2.464V5h8.31v21.647zM129 5.047v8.118h-8.12v27.832h-8.07V13.166h-8.118V5.048H129zM137.908 0v2.032h-1.973V9h-1.962V2.032H132V0h5.908zM146 0v9h-2.078V5.855L142.86 9h-1.262l-1.086-3.242V9h-2.078V0h1.997l1.8 5.226L144.037 0H146z" fill="#000" fill-rule="evenodd"/></svg>