<?xml version="1.0" encoding="UTF-8"?>
<svg width="24px" height="24px" viewBox="0 0 24 24" version="1.1" xmlns="http://www.w3.org/2000/svg" xmlns:xlink="http://www.w3.org/1999/xlink">
    <g stroke="none" id="icon-trash" fill="currentColor">
        <path d="M22,6 L22,19.2 C22,21.8509668 20.0101544,24 17.5555556,24 L6.44444444,24 C3.98984556,24 2,21.8509668 2,19.2 L2,5.4 L2,6 L4,6 L4,19.5 C4,20.8807119 5.03009485,22 6.30078125,22 L17.8046875,22 C19.0753739,22 20.1054687,20.8807119 20.1054687,19.5 L20.1054687,6 L22,6 L22,6 Z" id="Combined-Shape" fill-rule="nonzero"></path>
        <path d="M1,4 L23,4 C23.5522847,4 24,4.44771525 24,5 C24,5.55228475 23.5522847,6 23,6 L1,6 C0.44771525,6 6.76353751e-17,5.55228475 0,5 C-6.76353751e-17,4.44771525 0.44771525,4 1,4 Z" id="Rectangle-54"></path>
        <path d="M15.2985325,2 L8.70146755,2 L7.92368977,4 L16.0763102,4 L15.2985325,2 Z M8.70146755,2.22044605e-16 L15.2985325,2.22044605e-16 C16.1233598,4.06629468e-18 16.8635862,0.506364581 17.1625418,1.27510748 L19,6 L5,6 L6.8374582,1.27510748 C7.13641377,0.506364581 7.87664025,-7.0526288e-17 8.70146755,2.22044605e-16 Z" id="Rectangle-55" fill-rule="nonzero"></path>
        <path d="M7,8 C7.55228475,8 8,8.44771525 8,9 L8,19 C8,19.5522847 7.55228475,20 7,20 C6.44771525,20 6,19.5522847 6,19 L6,9 C6,8.44771525 6.44771525,8 7,8 Z" id="Rectangle-52"></path>
        <path d="M12,8 C12.5522847,8 13,8.44771525 13,9 L13,19 C13,19.5522847 12.5522847,20 12,20 C11.4477153,20 11,19.5522847 11,19 L11,9 C11,8.44771525 11.4477153,8 12,8 Z" id="Rectangle-52"></path>
        <path d="M17,8 C17.5522847,8 18,8.44771525 18,9 L18,19 C18,19.5522847 17.5522847,20 17,20 C16.4477153,20 16,19.5522847 16,19 L16,9 C16,8.44771525 16.4477153,8 17,8 Z" id="Rectangle-52"></path>
    </g>
</svg>
