<?xml version="1.0" encoding="UTF-8"?>
<svg width="146px" height="41px" viewBox="0 0 146 41" version="1.1" xmlns="http://www.w3.org/2000/svg" xmlns:xlink="http://www.w3.org/1999/xlink">
    <!-- Generator: Sketch 47.1 (45422) - http://www.bohemiancoding.com/sketch -->
    <title>Logo</title>
    <desc>Created with Sketch.</desc>
    <defs></defs>
    <g id="Page-1" stroke="none" stroke-width="1" fill="none" fill-rule="evenodd">
        <g id="Desktop-HD-Copy" transform="translate(-260.000000, -79.000000)" fill="#000000">
            <path d="M283.875672,111.63862 C283.811619,112.798288 283.483351,113.88546 282.89086,114.90017 C282.298369,115.91488 281.481704,116.800724 280.440842,117.55773 C279.399979,118.314735 278.142956,118.910667 276.669735,119.345542 C275.196513,119.780418 273.531158,119.997852 271.673618,119.997852 C270.232424,119.997852 268.879322,119.804577 267.614274,119.418021 C266.349225,119.031465 265.204293,118.483852 264.179444,117.775166 C263.154594,117.06648 262.281884,116.204795 261.561286,115.190086 C260.840689,114.175376 260.320265,113.023778 260,111.735258 L267.686333,108.497867 C267.62228,108.53008 267.694338,108.755568 267.902511,109.174337 C268.110684,109.593106 268.406925,110.036028 268.791243,110.503117 C269.175562,110.970205 269.647946,111.388968 270.208411,111.759418 C270.768875,112.129867 271.369364,112.266771 272.009895,112.170132 C272.554347,112.105705 273.090783,111.864112 273.619221,111.445343 C274.147659,111.026573 274.395861,110.366217 274.363835,109.464253 C274.331808,108.916632 274.115632,108.409284 273.7153,107.942196 C273.314968,107.475107 272.746506,106.983866 272.009895,106.468458 C270.376541,105.373216 268.86331,104.414894 267.470155,103.593462 C266.077,102.77203 264.860009,101.910345 263.819147,101.008381 C262.778284,100.106417 261.961619,99.0917227 261.369128,97.9642676 C260.776637,96.8368124 260.480396,95.4194615 260.480396,93.7121723 C260.480396,92.1337351 260.800656,90.7485966 261.441187,89.5567155 C262.081718,88.3648343 262.930409,87.3662462 263.987285,86.560921 C265.044161,85.7555959 266.261152,85.143558 267.638293,84.724789 C269.015435,84.3060199 270.440595,84.0805323 271.913816,84.0483193 C273.675276,84.0483193 275.220534,84.2979663 276.549636,84.7972679 C277.878737,85.2965694 278.99965,85.9327667 279.912406,86.7058788 C280.825163,87.4789909 281.537743,88.3567821 282.050168,89.3392788 C282.562592,90.3217754 282.898866,91.2962042 283.058999,92.2625943 L275.99718,95.0651117 C275.901101,94.7107686 275.756983,94.3161653 275.564824,93.8812897 C275.372665,93.4464141 275.10845,93.0437576 274.772171,92.6733081 C274.435892,92.3028585 274.035567,91.9887864 273.571182,91.7310824 C273.106797,91.4733784 272.57036,91.3445283 271.961856,91.3445283 C271.321325,91.3445283 270.736849,91.5458565 270.208411,91.9485191 C269.679973,92.3511817 269.415758,92.9551664 269.415758,93.7604915 C269.415758,94.3725386 269.66396,94.9120983 270.160371,95.3791869 C270.656783,95.8462755 271.433415,96.4663665 272.490291,97.2394786 C273.963512,98.0770167 275.380666,98.9145423 276.741794,99.7520804 C278.102922,100.589619 279.311906,101.539888 280.368782,102.602917 C281.425658,103.665946 282.274349,104.865863 282.91488,106.202702 C283.555411,107.539542 283.875672,109.126009 283.875672,110.96215 L283.875672,111.63862 Z M309.724398,84.0483193 L309.724398,92.1659558 L301.605708,92.1659558 L301.605708,119.997852 L293.535059,119.997852 L293.535059,92.1659558 L285.41637,92.1659558 L285.41637,84.0483193 L309.724398,84.0483193 Z M324.860297,119.997852 L320.056339,108.30459 L319.96026,108.30459 L319.96026,119.997852 L311.88961,119.997852 L311.88961,84.0483193 L322.794595,84.0483193 C324.844294,84.0483193 326.549682,84.3623913 327.91081,84.9905449 C329.271938,85.6186985 330.360825,86.4562241 331.177502,87.5031467 C331.994179,88.5500694 332.578654,89.7741452 332.930946,91.1754109 C333.283238,92.5766765 333.459382,94.0503994 333.459382,95.5966236 C333.459382,97.2072738 333.195167,98.640731 332.666729,99.8970382 C332.138291,101.153345 331.513782,102.208305 330.793185,103.06195 C330.072588,103.915595 329.343995,104.559845 328.607384,104.994721 C327.870774,105.429596 327.294304,105.647031 326.877959,105.647031 L334.131936,119.997852 L324.860297,119.997852 Z M362.382641,105.647031 C362.382641,107.773089 362.102413,109.721947 361.541948,111.493662 C360.981484,113.265377 360.164819,114.787419 359.09193,116.059832 C358.01904,117.332246 356.681952,118.314728 355.080625,119.007308 C353.479297,119.699887 351.621785,120.030065 349.508033,119.997852 L349.459994,119.997852 C347.122056,120.030065 345.13644,119.659621 343.503086,118.886509 C341.869732,118.113397 340.54065,117.058437 339.5158,115.721597 C338.490951,114.384758 337.746345,112.84661 337.28196,111.107108 C336.817575,109.367605 336.585386,107.547598 336.585386,105.647031 L336.585386,84 L344.896233,84 L344.896233,105.01888 C344.896233,105.888631 344.984305,106.710051 345.160451,107.483163 C345.336597,108.256275 345.616825,108.932738 346.001144,109.512572 C346.385462,110.092406 346.865853,110.551434 347.442331,110.889671 C348.018809,111.227908 348.70737,111.397023 349.508033,111.397023 C350.308697,111.397023 350.997257,111.227908 351.573735,110.889671 C352.150213,110.551434 352.622598,110.092406 352.990903,109.512572 C353.359208,108.932738 353.63143,108.256275 353.807576,107.483163 C353.983722,106.710051 354.071793,105.888631 354.071793,105.01888 L354.071793,84 L362.382641,84 L362.382641,105.647031 Z M389,84.0483193 L389,92.1659558 L380.881311,92.1659558 L380.881311,119.997852 L372.810661,119.997852 L372.810661,92.1659558 L364.691972,92.1659558 L364.691972,84.0483193 L389,84.0483193 Z M397.907905,79 L397.907905,81.0322581 L395.934711,81.0322581 L395.934711,88 L393.973194,88 L393.973194,81.0322581 L392,81.0322581 L392,79 L397.907905,79 Z M406,79 L406,88 L403.921725,88 L403.921725,84.8548387 L402.859236,88 L401.598261,88 L400.51242,84.7580645 L400.51242,88 L398.434145,88 L398.434145,79 L400.43069,79 L402.228748,84.2258065 L404.038482,79 L406,79 Z" id="Logo"></path>
        </g>
    </g>
</svg>